<svg width="16" height="16" viewBox="0 0 16 16" fill="none" xmlns="http://www.w3.org/2000/svg">
<rect width="16" height="16" rx="8" fill="#FAFAFA"/>
<path d="M8.02653 12.0553C7.12653 12.0553 6.41013 11.7961 5.87733 11.2777C5.34453 10.7521 5.07812 9.98887 5.07812 8.98807V7.26007C5.07812 6.25927 5.34453 5.49967 5.87733 4.98127C6.41013 4.45567 7.12653 4.19287 8.02653 4.19287C8.91933 4.19287 9.60333 4.44127 10.0785 4.93807C10.5609 5.43487 10.8021 6.11527 10.8021 6.97927V7.03327H9.90573V6.94687C9.90573 6.37807 9.75093 5.91367 9.44133 5.55367C9.13893 5.18647 8.66733 5.00287 8.02653 5.00287C7.38573 5.00287 6.88533 5.20087 6.52533 5.59687C6.16533 5.98567 5.98533 6.53287 5.98533 7.23847V9.00967C5.98533 9.71527 6.16533 10.2661 6.52533 10.6621C6.88533 11.0509 7.38573 11.2453 8.02653 11.2453C8.66733 11.2453 9.13893 11.0653 9.44133 10.7053C9.75093 10.3381 9.90573 9.87007 9.90573 9.30127V9.12847H10.8021V9.26887C10.8021 10.1329 10.5609 10.8133 10.0785 11.3101C9.60333 11.8069 8.91933 12.0553 8.02653 12.0553Z" fill="#252424"/>
</svg>
