<svg width="16" height="16" viewBox="0 0 16 16" fill="none" xmlns="http://www.w3.org/2000/svg">
<rect width="16" height="16" rx="8" fill="#252424"/>
<path d="M8.02642 12.0468C7.12705 12.0468 6.41115 11.7878 5.87872 11.2698C5.34629 10.7446 5.08008 9.98189 5.08008 8.98179V7.255C5.08008 6.2549 5.34629 5.49583 5.87872 4.97779C6.41115 4.45256 7.12705 4.18994 8.02642 4.18994C8.91859 4.18994 9.60212 4.43817 10.077 4.93462C10.559 5.43107 10.8001 6.111 10.8001 6.97439V7.02836H9.9043V6.94202C9.9043 6.37361 9.74961 5.90954 9.44023 5.54979C9.13804 5.18285 8.66677 4.99938 8.02642 4.99938C7.38607 4.99938 6.88602 5.19724 6.52627 5.59296C6.16652 5.98149 5.98664 6.52831 5.98664 7.23341V9.00338C5.98664 9.70848 6.16652 10.2589 6.52627 10.6546C6.88602 11.0431 7.38607 11.2374 8.02642 11.2374C8.66677 11.2374 9.13804 11.0575 9.44023 10.6978C9.74961 10.3308 9.9043 9.86317 9.9043 9.29477V9.12209H10.8001V9.26239C10.8001 10.1258 10.559 10.8057 10.077 11.3022C9.60212 11.7986 8.91859 12.0468 8.02642 12.0468Z" fill="#FAFAFA"/>
</svg>
