<svg width="7" height="5" viewBox="0 0 7 5" fill="none" xmlns="http://www.w3.org/2000/svg">
<path d="M5.84 0V1H5.26C4.78 1 4.54 1.24 4.54 1.72V2.36H4.82C5.20667 2.36 5.52667 2.48 5.78 2.72C6.04667 2.96 6.18 3.26 6.18 3.62C6.18 4.00667 6.04667 4.32 5.78 4.56C5.52667 4.8 5.20667 4.92 4.82 4.92C4.43333 4.92 4.11333 4.79333 3.86 4.54C3.60667 4.28667 3.48 3.96667 3.48 3.58V1.72C3.48 0.573333 4.05333 0 5.2 0H5.84ZM2.36 0V1H1.78C1.3 1 1.06 1.24 1.06 1.72V2.36H1.34C1.72667 2.36 2.04667 2.48 2.3 2.72C2.56667 2.96 2.7 3.26 2.7 3.62C2.7 4.00667 2.56667 4.32 2.3 4.56C2.04667 4.8 1.72667 4.92 1.34 4.92C0.953333 4.92 0.633333 4.79333 0.38 4.54C0.126667 4.28667 0 3.96667 0 3.58V1.72C0 0.573333 0.573333 0 1.72 0H2.36Z" fill="#FAFAFA"/>
</svg>
