<svg width="16" height="16" viewBox="0 0 16 16" fill="none" xmlns="http://www.w3.org/2000/svg">
  <style>
    .light-mode-icon { display: block; }
    .dark-mode-icon { display: none; }
    @media (prefers-color-scheme: dark) {
      .light-mode-icon { display: none; }
      .dark-mode-icon { display: block; }
    }
  </style>
  <!-- Light mode icon (favicon-default.svg) -->
  <g class="light-mode-icon">
    <rect width="16" height="16" rx="8" fill="#252424"/>
    <path d="M8.02642 12.0468C7.12705 12.0468 6.41115 11.7878 5.87872 11.2698C5.34629 10.7446 5.08008 9.98189 5.08008 8.98179V7.255C5.08008 6.2549 5.34629 5.49583 5.87872 4.97779C6.41115 4.45256 7.12705 4.18994 8.02642 4.18994C8.91859 4.18994 9.60212 4.43817 10.077 4.93462C10.559 5.43107 10.8001 6.111 10.8001 6.97439V7.02836H9.9043V6.94202C9.9043 6.37361 9.74961 5.90954 9.44023 5.54979C9.13804 5.18285 8.66677 4.99938 8.02642 4.99938C7.38607 4.99938 6.88602 5.19724 6.52627 5.59296C6.16652 5.98149 5.98664 6.52831 5.98664 7.23341V9.00338C5.98664 9.70848 6.16652 10.2589 6.52627 10.6546C6.88602 11.0431 7.38607 11.2374 8.02642 11.2374C8.66677 11.2374 9.13804 11.0575 9.44023 10.6978C9.74961 10.3308 9.9043 9.86317 9.9043 9.29477V9.12209H10.8001V9.26239C10.8001 10.1258 10.559 10.8057 10.077 11.3022C9.60212 11.7986 8.91859 12.0468 8.02642 12.0468Z" fill="#FAFAFA"/>
  </g>
  <!-- Dark mode icon (favicon-dark-mode.svg) -->
  <g class="dark-mode-icon">
    <rect width="16" height="16" rx="8" fill="#FAFAFA"/>
    <path d="M8.02653 12.0553C7.12653 12.0553 6.41013 11.7961 5.87733 11.2777C5.34453 10.7521 5.07812 9.98887 5.07812 8.98807V7.26007C5.07812 6.25927 5.34453 5.49967 5.87733 4.98127C6.41013 4.45567 7.12653 4.19287 8.02653 4.19287C8.91933 4.19287 9.60333 4.44127 10.0785 4.93807C10.5609 5.43487 10.8021 6.11527 10.8021 6.97927V7.03327H9.90573V6.94687C9.90573 6.37807 9.75093 5.91367 9.44133 5.55367C9.13893 5.18647 8.66733 5.00287 8.02653 5.00287C7.38573 5.00287 6.88533 5.20087 6.52533 5.59687C6.16533 5.98567 5.98533 6.53287 5.98533 7.23847V9.00967C5.98533 9.71527 6.16533 10.2661 6.52533 10.6621C6.88533 11.0509 7.38573 11.2453 8.02653 11.2453C8.66733 11.2453 9.13893 11.0653 9.44133 10.7053C9.75093 10.3381 9.90573 9.87007 9.90573 9.30127V9.12847H10.8021V9.26887C10.8021 10.1329 10.5609 10.8133 10.0785 11.3101C9.60333 11.8069 8.91933 12.0553 8.02653 12.0553Z" fill="#252424"/>
  </g>
</svg>

